<svg xmlns="http://www.w3.org/2000/svg" version="1.1" x="0" y="0" width="751.1" height="202.61" viewBox="0 0 751.1 202.61" enable-background="new 0 0 751.098 202.613" xml:space="preserve"><path fill="#FFFFFF" stroke="#000000" stroke-miterlimit="10" d="M115.77 114.86c2.12 30.75 20.83 79.92 20.83 79.92l40-26.25c0 0-29.47-57.68-30-78 -0.72-27.94 5.5-74.5 5.5-74.5l-47.25-15.32c0 0 3.7 39.86 3 68.82l-38.75 1c-1.14-29.28-20.5-67.5-20.5-67.5L0.73 23.24c0 0 30.95 50.19 30.22 78.13 -0.53 20.32-10.36 91.91-10.36 91.91l55.25 8.75c0 0 2.58-75.25-2.08-86.5L115.77 114.86z"/><path fill="#FFFFFF" stroke="#000000" stroke-miterlimit="10" d="M233.02 118.72c0 3.46-1.2 6.39-3.61 8.8 -2.41 2.41-5.31 3.61-8.71 3.61h-26.6c-3.46 0-6.39-1.2-8.8-3.61 -2.41-2.41-3.61-5.34-3.61-8.8v-17.68c0-3.46 1.2-6.39 3.61-8.8 2.41-2.41 5.34-3.61 8.8-3.61h26.61c3.4 0 6.3 1.21 8.71 3.61 2.41 2.41 3.61 5.34 3.61 8.8V118.72zM225.97 118.72v-17.68c0-1.47-0.52-2.73-1.57-3.78 -1.05-1.05-2.28-1.57-3.7-1.57h-26.6c-1.47 0-2.73 0.52-3.78 1.57 -1.05 1.05-1.57 2.31-1.57 3.78v17.68c0 1.48 0.52 2.74 1.57 3.78 1.05 1.05 2.31 1.57 3.78 1.57h26.61c1.42 0 2.65-0.52 3.7-1.57C225.44 121.45 225.97 120.19 225.97 118.72z"/><path fill="#FFFFFF" stroke="#000000" stroke-miterlimit="10" d="M289.38 118.72c0 3.46-1.22 6.39-3.65 8.8 -2.44 2.41-5.35 3.61-8.76 3.61h-35.44v-7.05h35.52c1.48 0 2.72-0.53 3.75-1.58 1.02-1.06 1.53-2.33 1.53-3.81s-0.51-2.74-1.53-3.77c-1.02-1.03-2.27-1.54-3.75-1.54h-24.02c-3.41 0-6.32-1.21-8.73-3.64s-3.62-5.34-3.62-8.73c0-3.44 1.2-6.37 3.61-8.77 2.41-2.4 5.31-3.6 8.71-3.6h35.45v7.06h-35.44c-1.42 0-2.65 0.52-3.7 1.57 -1.05 1.05-1.57 2.31-1.57 3.78 0 1.47 0.52 2.72 1.57 3.74 1.05 1.02 2.28 1.53 3.7 1.53h23.97c3.4 0 6.32 1.22 8.76 3.66C288.16 112.4 289.38 115.32 289.38 118.72z"/><path fill="#FFFFFF" stroke="#000000" stroke-miterlimit="10" d="M337.31 131.13h-21.2c-3.39 0-6.3-1.2-8.73-3.61 -2.43-2.41-3.65-5.34-3.65-8.8V95.68h-8.93v-7.05h8.93V70.86h7.06v17.77h26.52v7.06h-26.52v23.04c0 1.48 0.51 2.74 1.53 3.78 1.02 1.05 2.27 1.57 3.74 1.57h21.25V131.13z"/><path fill="#FFFFFF" stroke="#000000" stroke-miterlimit="10" d="M352.78 77.92h-7.05v-7.05h7.06V77.92zM366.13 131.13h-7.99c-3.46 0-6.39-1.2-8.8-3.61 -2.41-2.41-3.61-5.34-3.61-8.8v-30.09h7.06v30.09c0 1.48 0.52 2.74 1.57 3.78 1.05 1.05 2.31 1.57 3.78 1.57h7.99V131.13z"/><path fill="#FFFFFF" stroke="#000000" stroke-miterlimit="10" d="M425.97 131.13h-7.05v-30.09c0-1.47-0.52-2.73-1.57-3.78 -1.05-1.05-2.28-1.57-3.7-1.57h-26.6c-1.47 0-2.73 0.52-3.78 1.57 -1.05 1.05-1.57 2.31-1.57 3.78v30.09h-7.05v-30.09c0-3.46 1.2-6.39 3.61-8.8 2.41-2.41 5.34-3.61 8.8-3.61h26.6c3.4 0 6.3 1.21 8.71 3.61 2.41 2.41 3.61 5.34 3.61 8.8V131.13z"/><path fill="#FFFFFF" stroke="#000000" stroke-miterlimit="10" d="M485.89 148.81h-7.05v-3.48c0-1.47-0.52-2.73-1.57-3.78 -1.05-1.05-2.31-1.57-3.78-1.57h-27.45c-3.4 0-6.3-1.2-8.71-3.61 -2.41-2.41-3.61-5.34-3.61-8.8 0-3.4 1.36-6.49 4.08-9.26 -2.15-2.66-3.23-5.47-3.23-8.41v-8.84c0-3.46 1.2-6.39 3.61-8.8 2.41-2.41 5.34-3.61 8.8-3.61h26.6c3.4 0 6.3 1.21 8.71 3.61 2.41 2.41 3.61 5.34 3.61 8.8v8.84c0 3.46-1.2 6.39-3.61 8.8 -2.41 2.41-5.31 3.61-8.71 3.61h-27.54c-1.42 0-2.65 0.52-3.7 1.57 -1.05 1.05-1.57 2.28-1.57 3.7 0 1.47 0.52 2.73 1.57 3.78 1.05 1.05 2.31 1.57 3.78 1.57h27.37c3.46 0 6.39 1.2 8.8 3.61 2.41 2.41 3.61 5.34 3.61 8.8V148.81zM478.84 109.88v-8.84c0-1.47-0.52-2.73-1.57-3.78 -1.05-1.05-2.28-1.57-3.7-1.57h-26.6c-1.47 0-2.73 0.53-3.78 1.58 -1.05 1.05-1.57 2.32-1.57 3.8v8.88c0 1.42 0.51 2.66 1.53 3.71 1.02 1.05 2.24 1.58 3.66 1.58h26.77c1.42 0 2.65-0.52 3.7-1.57C478.31 112.61 478.84 111.35 478.84 109.88z"/><path fill="#FFFFFF" stroke="#000000" stroke-miterlimit="10" d="M545.65 131.13h-38.93c-3.46 0-6.39-1.2-8.8-3.61 -2.41-2.41-3.61-5.34-3.61-8.8v-17.68c0-3.46 1.2-6.39 3.61-8.8 2.41-2.41 5.34-3.61 8.8-3.61h26.6c3.4 0 6.3 1.2 8.71 3.6 2.41 2.4 3.61 5.32 3.61 8.77v12.37h-44.28v5.31c0 1.49 0.52 2.76 1.57 3.81 1.05 1.06 2.31 1.58 3.78 1.58h38.93V131.13zM538.59 106.31v-5.27c0-1.47-0.52-2.73-1.57-3.78 -1.05-1.05-2.28-1.57-3.7-1.57h-26.6c-1.47 0-2.73 0.52-3.78 1.57 -1.05 1.05-1.57 2.31-1.57 3.78v5.27H538.59z"/><path fill="#FFFFFF" stroke="#000000" stroke-miterlimit="10" d="M592.23 95.68h-25.67c-1.47 0-2.73 0.52-3.78 1.57 -1.05 1.05-1.57 2.31-1.57 3.78v30.09h-7.05v-30.09c0-3.46 1.2-6.39 3.61-8.8 2.41-2.41 5.34-3.61 8.8-3.61h25.67V95.68z"/><path fill="#FFFFFF" stroke="#000000" stroke-miterlimit="10" d="M607.78 131.13h-7.05v-7.05h7.06V131.13z"/><path fill="#FFFFFF" stroke="#000000" stroke-miterlimit="10" d="M664.14 118.72c0 3.46-1.22 6.39-3.65 8.8 -2.44 2.41-5.35 3.61-8.76 3.61h-35.44v-7.05h35.52c1.48 0 2.72-0.53 3.75-1.58 1.02-1.06 1.53-2.33 1.53-3.81s-0.51-2.74-1.53-3.77c-1.02-1.03-2.27-1.54-3.75-1.54h-24.02c-3.41 0-6.32-1.21-8.73-3.64 -2.41-2.43-3.62-5.34-3.62-8.73 0-3.44 1.2-6.37 3.61-8.77 2.41-2.4 5.31-3.6 8.71-3.6h35.45v7.06h-35.44c-1.42 0-2.65 0.52-3.7 1.57 -1.05 1.05-1.57 2.31-1.57 3.78 0 1.47 0.52 2.72 1.57 3.74 1.05 1.02 2.28 1.53 3.7 1.53h23.97c3.4 0 6.32 1.22 8.76 3.66C662.92 112.4 664.14 115.32 664.14 118.72z"/><path fill="#FFFFFF" stroke="#000000" stroke-miterlimit="10" d="M678.76 70.86v60.27H671.7V70.86H678.76zM716.92 131.13h-7.05v-3.6c0-1.49-0.52-2.74-1.57-3.78 -1.05-1.03-2.3-1.54-3.77-1.54h-13.22c-3.39 0-6.3-1.21-8.73-3.64 -2.43-2.43-3.64-5.34-3.64-8.73 0-3.44 1.21-6.37 3.65-8.77s5.34-3.6 8.73-3.6h13.22c1.47 0 2.73-0.52 3.77-1.57 1.05-1.05 1.57-2.28 1.57-3.7v-3.57h7.06v3.57c0 3.4-1.2 6.31-3.61 8.71 -2.41 2.41-5.34 3.61-8.8 3.61h-13.26c-1.47 0-2.72 0.52-3.74 1.57 -1.02 1.05-1.53 2.31-1.53 3.78 0 1.47 0.51 2.72 1.53 3.74 1.02 1.02 2.27 1.53 3.74 1.53h13.26c3.46 0 6.39 1.22 8.8 3.66 2.41 2.44 3.61 5.36 3.61 8.76V131.13z"/></svg>