<svg xmlns="http://www.w3.org/2000/svg" version="1.1" x="0" y="0" width="589.82" height="243.71" viewBox="-147.93 -363.6 589.82 243.71" enable-background="new -147.931 -363.597 589.82 243.707" xml:space="preserve"><path fill="#FFFFFF" stroke="#000000" stroke-miterlimit="10" d="M-113.68-324.35"/><path fill="#FFFFFF" stroke="#000000" stroke-miterlimit="10" d="M-39.56-318.2c-0.89-0.57-1.65-1.66-1.69-2.44 -0.05-0.78 0.35-3.39 1.13-4.1l5.37-4.92c0.78-0.71 1.14-2.11 0.82-3.12l-0.79-2.17c-0.39-0.98-1.58-1.81-2.63-1.85l-7.24-0.29c-1.05-0.04-2.26-0.62-2.7-1.29 -0.43-0.66-1.43-3.16-1.11-4.17l2.19-6.94c0.31-1.01-0.07-2.4-0.85-3.11l-1.73-1.46c-0.83-0.65-2.27-0.78-3.2-0.29l-6.41 3.37c-0.93 0.49-2.28 0.59-3 0.23 -0.72-0.36-2.87-2.05-3.1-3.07l-1.57-7.07c-0.23-1.03-1.25-2.06-2.28-2.3 0 0-0.1-0.02-1.11-0.2 -1.01-0.17-1.11-0.19-1.11-0.19 -1.04-0.12-2.36 0.5-2.92 1.4l-3.86 6.11c-0.56 0.89-1.68 1.66-2.49 1.71 -0.81 0.05-3.5-0.32-4.21-1.1l-4.89-5.34c-0.71-0.77-2.11-1.14-3.11-0.81l-2.13 0.78c-0.98 0.4-1.81 1.58-1.85 2.63l-0.29 7.28c-0.04 1.05-0.62 2.27-1.28 2.71 -0.66 0.44-3.15 1.45-4.16 1.13l-6.91-2.18c-1-0.32-2.4 0.07-3.1 0.85l-1.48 1.78c-0.65 0.83-0.78 2.27-0.29 3.21l3.39 6.45c0.49 0.93 0.61 2.27 0.26 2.96 -0.34 0.69-1.98 2.78-3.01 3l-7.05 1.56c-1.03 0.23-2.06 1.25-2.3 2.28 0 0-0.01 0.04-0.18 1.02 -0.19 1.09-0.22 1.35-0.22 1.35 -0.12 1.05 0.52 2.36 1.4 2.92l6.15 3.89c0.89 0.56 1.66 1.64 1.71 2.4 0.06 0.76-0.34 3.31-1.11 4.02l-5.35 4.89c-0.77 0.71-1.14 2.11-0.81 3.11l0.85 2.3c0.4 0.98 1.59 1.81 2.64 1.85l7.29 0.3c1.05 0.04 2.25 0.57 2.66 1.19 0.41 0.61 1.32 2.98 1 3.98l-2.19 6.94c-0.32 1.01 0.06 2.4 0.85 3.1l1.92 1.6c0.83 0.65 2.28 0.77 3.21 0.29l6.46-3.39c0.93-0.49 2.22-0.63 2.87-0.3 0.65 0.32 2.6 1.92 2.82 2.95l1.57 7.09c0.23 1.03 1.26 2.06 2.28 2.31 0 0 0.19 0.05 1.25 0.23 1.05 0.19 1.25 0.21 1.25 0.21 1.05 0.12 2.36-0.51 2.92-1.4l3.88-6.13c0.56-0.89 1.62-1.66 2.34-1.7 0.73-0.05 3.2 0.37 3.91 1.14l4.93 5.38c0.71 0.78 2.12 1.15 3.12 0.82l2.35-0.86c0.98-0.4 1.81-1.58 1.85-2.63l0.29-7.27c0.04-1.05 0.58-2.24 1.19-2.65 0.61-0.4 2.99-1.3 3.99-0.98l6.97 2.2c1 0.32 2.4-0.06 3.11-0.84l1.57-1.88c0.65-0.83 0.78-2.27 0.29-3.2l-3.37-6.42c-0.49-0.93-0.61-2.24-0.27-2.91 0.34-0.67 1.98-2.69 3-2.92l7.11-1.58c1.03-0.23 2.07-1.25 2.31-2.28 0 0 0.06-0.25 0.25-1.34 0.17-0.98 0.18-1.02 0.18-1.02 0.12-1.05-0.5-2.36-1.39-2.92L-39.56-318.2zM-53.54-314.12c-2.29 13.15-14.82 21.96-27.97 19.66 -13.15-2.29-21.96-14.82-19.66-27.97 2.3-13.15 14.83-21.96 27.98-19.66C-60.04-339.8-51.24-327.27-53.54-314.12z"/><path fill="#FFFFFF" stroke="#000000" stroke-miterlimit="10" d="M-39.56-318.2c-0.89-0.57-1.65-1.66-1.69-2.44 -0.05-0.78 0.35-3.39 1.13-4.1l5.37-4.92c0.78-0.71 1.14-2.11 0.82-3.12l-0.79-2.17c-0.39-0.98-1.58-1.81-2.63-1.85l-7.24-0.29c-1.05-0.04-2.26-0.62-2.7-1.29 -0.43-0.66-1.43-3.16-1.11-4.17l2.19-6.94c0.31-1.01-0.07-2.4-0.85-3.11l-1.73-1.46c-0.83-0.65-2.27-0.78-3.2-0.29l-6.41 3.37c-0.93 0.49-2.28 0.59-3 0.23 -0.72-0.36-2.87-2.05-3.1-3.07l-1.57-7.07c-0.23-1.03-1.25-2.06-2.28-2.3 0 0-0.1-0.02-1.11-0.2 -1.01-0.17-1.11-0.19-1.11-0.19 -1.04-0.12-2.36 0.5-2.92 1.4l-3.86 6.11c-0.56 0.89-1.68 1.66-2.49 1.71 -0.81 0.05-3.5-0.32-4.21-1.1l-4.89-5.34c-0.71-0.77-2.11-1.14-3.11-0.81l-2.13 0.78c-0.98 0.4-1.81 1.58-1.85 2.63l-0.29 7.28c-0.04 1.05-0.62 2.27-1.28 2.71 -0.66 0.44-3.15 1.45-4.16 1.13l-6.91-2.18c-1-0.32-2.4 0.07-3.1 0.85l-1.48 1.78c-0.65 0.83-0.78 2.27-0.29 3.21l3.39 6.45c0.49 0.93 0.61 2.27 0.26 2.96 -0.34 0.69-1.98 2.78-3.01 3l-7.05 1.56c-1.03 0.23-2.06 1.25-2.3 2.28 0 0-0.01 0.04-0.18 1.02 -0.19 1.09-0.22 1.35-0.22 1.35 -0.12 1.05 0.52 2.36 1.4 2.92l6.15 3.89c0.89 0.56 1.66 1.64 1.71 2.4 0.06 0.76-0.34 3.31-1.11 4.02l-5.35 4.89c-0.77 0.71-1.14 2.11-0.81 3.11l0.85 2.3c0.4 0.98 1.59 1.81 2.64 1.85l7.29 0.3c1.05 0.04 2.25 0.57 2.66 1.19 0.41 0.61 1.32 2.98 1 3.98l-2.19 6.94c-0.32 1.01 0.06 2.4 0.85 3.1l1.92 1.6c0.83 0.65 2.28 0.77 3.21 0.29l6.46-3.39c0.93-0.49 2.22-0.63 2.87-0.3 0.65 0.32 2.6 1.92 2.82 2.95l1.57 7.09c0.23 1.03 1.26 2.06 2.28 2.31 0 0 0.19 0.05 1.25 0.23 1.05 0.19 1.25 0.21 1.25 0.21 1.05 0.12 2.36-0.51 2.92-1.4l3.88-6.13c0.56-0.89 1.62-1.66 2.34-1.7 0.73-0.05 3.2 0.37 3.91 1.14l4.93 5.38c0.71 0.78 2.12 1.15 3.12 0.82l2.35-0.86c0.98-0.4 1.81-1.58 1.85-2.63l0.29-7.27c0.04-1.05 0.58-2.24 1.19-2.65 0.61-0.4 2.99-1.3 3.99-0.98l6.97 2.2c1 0.32 2.4-0.06 3.11-0.84l1.57-1.88c0.65-0.83 0.78-2.27 0.29-3.2l-3.37-6.42c-0.49-0.93-0.61-2.24-0.27-2.91 0.34-0.67 1.98-2.69 3-2.92l7.11-1.58c1.03-0.23 2.07-1.25 2.31-2.28 0 0 0.06-0.25 0.25-1.34 0.17-0.98 0.18-1.02 0.18-1.02 0.12-1.05-0.5-2.36-1.39-2.92L-39.56-318.2zM-53.54-314.12c-2.29 13.15-14.82 21.96-27.97 19.66 -13.15-2.29-21.96-14.82-19.66-27.97 2.3-13.15 14.83-21.96 27.98-19.66C-60.04-339.8-51.24-327.27-53.54-314.12z"/><path fill="#FFFFFF" stroke="#000000" stroke-miterlimit="10" d="M-39.56-318.2c-0.89-0.57-1.65-1.66-1.69-2.44 -0.05-0.78 0.35-3.39 1.13-4.1l5.37-4.92c0.78-0.71 1.14-2.11 0.82-3.12l-0.79-2.17c-0.39-0.98-1.58-1.81-2.63-1.85l-7.24-0.29c-1.05-0.04-2.26-0.62-2.7-1.29 -0.43-0.66-1.43-3.16-1.11-4.17l2.19-6.94c0.31-1.01-0.07-2.4-0.85-3.11l-1.73-1.46c-0.83-0.65-2.27-0.78-3.2-0.29l-6.41 3.37c-0.93 0.49-2.28 0.59-3 0.23 -0.72-0.36-2.87-2.05-3.1-3.07l-1.57-7.07c-0.23-1.03-1.25-2.06-2.28-2.3 0 0-0.1-0.02-1.11-0.2 -1.01-0.17-1.11-0.19-1.11-0.19 -1.04-0.12-2.36 0.5-2.92 1.4l-3.86 6.11c-0.56 0.89-1.68 1.66-2.49 1.71 -0.81 0.05-3.5-0.32-4.21-1.1l-4.89-5.34c-0.71-0.77-2.11-1.14-3.11-0.81l-2.13 0.78c-0.98 0.4-1.81 1.58-1.85 2.63l-0.29 7.28c-0.04 1.05-0.62 2.27-1.28 2.71 -0.66 0.44-3.15 1.45-4.16 1.13l-6.91-2.18c-1-0.32-2.4 0.07-3.1 0.85l-1.48 1.78c-0.65 0.83-0.78 2.27-0.29 3.21l3.39 6.45c0.49 0.93 0.61 2.27 0.26 2.96 -0.34 0.69-1.98 2.78-3.01 3l-7.05 1.56c-1.03 0.23-2.06 1.25-2.3 2.28 0 0-0.01 0.04-0.18 1.02 -0.19 1.09-0.22 1.35-0.22 1.35 -0.12 1.05 0.52 2.36 1.4 2.92l6.15 3.89c0.89 0.56 1.66 1.64 1.71 2.4 0.06 0.76-0.34 3.31-1.11 4.02l-5.35 4.89c-0.77 0.71-1.14 2.11-0.81 3.11l0.85 2.3c0.4 0.98 1.59 1.81 2.64 1.85l7.29 0.3c1.05 0.04 2.25 0.57 2.66 1.19 0.41 0.61 1.32 2.98 1 3.98l-2.19 6.94c-0.32 1.01 0.06 2.4 0.85 3.1l1.92 1.6c0.83 0.65 2.28 0.77 3.21 0.29l6.46-3.39c0.93-0.49 2.22-0.63 2.87-0.3 0.65 0.32 2.6 1.92 2.82 2.95l1.57 7.09c0.23 1.03 1.26 2.06 2.28 2.31 0 0 0.19 0.05 1.25 0.23 1.05 0.19 1.25 0.21 1.25 0.21 1.05 0.12 2.36-0.51 2.92-1.4l3.88-6.13c0.56-0.89 1.62-1.66 2.34-1.7 0.73-0.05 3.2 0.37 3.91 1.14l4.93 5.38c0.71 0.78 2.12 1.15 3.12 0.82l2.35-0.86c0.98-0.4 1.81-1.58 1.85-2.63l0.29-7.27c0.04-1.05 0.58-2.24 1.19-2.65 0.61-0.4 2.99-1.3 3.99-0.98l6.97 2.2c1 0.32 2.4-0.06 3.11-0.84l1.57-1.88c0.65-0.83 0.78-2.27 0.29-3.2l-3.37-6.42c-0.49-0.93-0.61-2.24-0.27-2.91 0.34-0.67 1.98-2.69 3-2.92l7.11-1.58c1.03-0.23 2.07-1.25 2.31-2.28 0 0 0.06-0.25 0.25-1.34 0.17-0.98 0.18-1.02 0.18-1.02 0.12-1.05-0.5-2.36-1.39-2.92L-39.56-318.2zM-53.54-314.12c-2.29 13.15-14.82 21.96-27.97 19.66 -13.15-2.29-21.96-14.82-19.66-27.97 2.3-13.15 14.83-21.96 27.98-19.66C-60.04-339.8-51.24-327.27-53.54-314.12z"/><path fill="#FFFFFF" stroke="#000000" stroke-miterlimit="10" d="M-39.56-318.2c-0.89-0.57-1.65-1.66-1.69-2.44 -0.05-0.78 0.35-3.39 1.13-4.1l5.37-4.92c0.78-0.71 1.14-2.11 0.82-3.12l-0.79-2.17c-0.39-0.98-1.58-1.81-2.63-1.85l-7.24-0.29c-1.05-0.04-2.26-0.62-2.7-1.29 -0.43-0.66-1.43-3.16-1.11-4.17l2.19-6.94c0.31-1.01-0.07-2.4-0.85-3.11l-1.73-1.46c-0.83-0.65-2.27-0.78-3.2-0.29l-6.41 3.37c-0.93 0.49-2.28 0.59-3 0.23 -0.72-0.36-2.87-2.05-3.1-3.07l-1.57-7.07c-0.23-1.03-1.25-2.06-2.28-2.3 0 0-0.1-0.02-1.11-0.2 -1.01-0.17-1.11-0.19-1.11-0.19 -1.04-0.12-2.36 0.5-2.92 1.4l-3.86 6.11c-0.56 0.89-1.68 1.66-2.49 1.71 -0.81 0.05-3.5-0.32-4.21-1.1l-4.89-5.34c-0.71-0.77-2.11-1.14-3.11-0.81l-2.13 0.78c-0.98 0.4-1.81 1.58-1.85 2.63l-0.29 7.28c-0.04 1.05-0.62 2.27-1.28 2.71 -0.66 0.44-3.15 1.45-4.16 1.13l-6.91-2.18c-1-0.32-2.4 0.07-3.1 0.85l-1.48 1.78c-0.65 0.83-0.78 2.27-0.29 3.21l3.39 6.45c0.49 0.93 0.61 2.27 0.26 2.96 -0.34 0.69-1.98 2.78-3.01 3l-7.05 1.56c-1.03 0.23-2.06 1.25-2.3 2.28 0 0-0.01 0.04-0.18 1.02 -0.19 1.09-0.22 1.35-0.22 1.35 -0.12 1.05 0.52 2.36 1.4 2.92l6.15 3.89c0.89 0.56 1.66 1.64 1.71 2.4 0.06 0.76-0.34 3.31-1.11 4.02l-5.35 4.89c-0.77 0.71-1.14 2.11-0.81 3.11l0.85 2.3c0.4 0.98 1.59 1.81 2.64 1.85l7.29 0.3c1.05 0.04 2.25 0.57 2.66 1.19 0.41 0.61 1.32 2.98 1 3.98l-2.19 6.94c-0.32 1.01 0.06 2.4 0.85 3.1l1.92 1.6c0.83 0.65 2.28 0.77 3.21 0.29l6.46-3.39c0.93-0.49 2.22-0.63 2.87-0.3 0.65 0.32 2.6 1.92 2.82 2.95l1.57 7.09c0.23 1.03 1.26 2.06 2.28 2.31 0 0 0.19 0.05 1.25 0.23 1.05 0.19 1.25 0.21 1.25 0.21 1.05 0.12 2.36-0.51 2.92-1.4l3.88-6.13c0.56-0.89 1.62-1.66 2.34-1.7 0.73-0.05 3.2 0.37 3.91 1.14l4.93 5.38c0.71 0.78 2.12 1.15 3.12 0.82l2.35-0.86c0.98-0.4 1.81-1.58 1.85-2.63l0.29-7.27c0.04-1.05 0.58-2.24 1.19-2.65 0.61-0.4 2.99-1.3 3.99-0.98l6.97 2.2c1 0.32 2.4-0.06 3.11-0.84l1.57-1.88c0.65-0.83 0.78-2.27 0.29-3.2l-3.37-6.42c-0.49-0.93-0.61-2.24-0.27-2.91 0.34-0.67 1.98-2.69 3-2.92l7.11-1.58c1.03-0.23 2.07-1.25 2.31-2.28 0 0 0.06-0.25 0.25-1.34 0.17-0.98 0.18-1.02 0.18-1.02 0.12-1.05-0.5-2.36-1.39-2.92L-39.56-318.2zM-53.54-314.12c-2.29 13.15-14.82 21.96-27.97 19.66 -13.15-2.29-21.96-14.82-19.66-27.97 2.3-13.15 14.83-21.96 27.98-19.66C-60.04-339.8-51.24-327.27-53.54-314.12z"/><path fill="#FFFFFF" stroke="#000000" stroke-miterlimit="10" d="M-74.27-336.16c-10-1.75-19.52 4.94-21.26 14.94 -1.75 10 4.94 19.52 14.94 21.27 10.01 1.75 19.53-4.95 21.27-14.95C-57.57-324.89-64.26-334.41-74.27-336.16zM-64.76-315.84c-1.22 7-7.88 11.67-14.87 10.46 -6.99-1.22-11.67-7.88-10.46-14.88 1.22-7 7.88-11.68 14.88-10.45C-68.22-329.49-63.54-322.83-64.76-315.84z"/><path fill="#FFFFFF" stroke="#000000" stroke-miterlimit="10" d="M-74.27-336.16c-10-1.75-19.52 4.94-21.26 14.94 -1.75 10 4.94 19.52 14.94 21.27 10.01 1.75 19.53-4.95 21.27-14.95C-57.57-324.89-64.26-334.41-74.27-336.16zM-64.76-315.84c-1.22 7-7.88 11.67-14.87 10.46 -6.99-1.22-11.67-7.88-10.46-14.88 1.22-7 7.88-11.68 14.88-10.45C-68.22-329.49-63.54-322.83-64.76-315.84z"/><text transform="matrix(1.0272 0 0 1 -64.7798 -177.5308)" fill="#FFFFFF" stroke="#000000" stroke-miterlimit="10" font-family="'Kalinga'" font-size="119">S</text><text transform="matrix(1.0272 0 0 1 13.9473 -177.5308)" fill="#FFFFFF" stroke="#000000" stroke-miterlimit="10" font-family="'Kalinga'" font-size="68">impl</text><text transform="matrix(1.0272 0 0 1 164.5688 -177.5308)" fill="#FFFFFF" stroke="#000000" stroke-miterlimit="10" font-family="'Kalinga'" font-size="112.27">C</text><text transform="matrix(1.0272 0 0 1 252.7354 -177.5308)" fill="#FFFFFF" stroke="#000000" stroke-miterlimit="10" font-family="'Kalinga'" font-size="68">oding</text><path fill="#FFFFFF" stroke="#000000" stroke-miterlimit="10" d="M-137.95-256.93"/><path fill="#FFFFFF" stroke="#000000" stroke-miterlimit="10" d="M-86.88-234.76c-0.49-0.61-0.77-1.58-0.61-2.14 0.15-0.56 1.06-2.32 1.79-2.64l4.99-2.2c0.73-0.32 1.32-1.22 1.33-2.01l-0.04-1.73c-0.04-0.79-0.68-1.66-1.42-1.95l-5.07-1.95c-0.73-0.28-1.45-0.99-1.6-1.56 -0.15-0.57-0.25-2.58 0.21-3.22l3.22-4.39c0.47-0.64 0.53-1.72 0.14-2.41l-0.88-1.45c-0.43-0.66-1.42-1.1-2.2-0.97l-5.36 0.85c-0.78 0.12-1.76-0.13-2.18-0.56 -0.42-0.43-1.54-2.14-1.46-2.92l0.59-5.39c0.09-0.78-0.39-1.76-1.06-2.18 0 0-0.07-0.04-0.74-0.41 -0.67-0.36-0.74-0.4-0.74-0.4 -0.71-0.34-1.79-0.21-2.41 0.29l-4.21 3.41c-0.61 0.5-1.59 0.77-2.18 0.61 -0.59-0.16-2.4-1.07-2.72-1.79l-2.19-4.96c-0.32-0.72-1.23-1.32-2.01-1.32l-1.7 0.04c-0.79 0.05-1.66 0.69-1.94 1.42l-1.95 5.09c-0.28 0.74-0.99 1.46-1.56 1.61 -0.57 0.15-2.58 0.27-3.22-0.2l-4.38-3.2c-0.64-0.47-1.72-0.53-2.4-0.14l-1.47 0.9c-0.66 0.44-1.1 1.43-0.97 2.21l0.85 5.39c0.12 0.78-0.11 1.75-0.52 2.16s-2.08 1.49-2.86 1.4l-5.37-0.59c-0.79-0.09-1.76 0.39-2.18 1.07 0 0-0.02 0.03-0.37 0.68 -0.39 0.73-0.48 0.9-0.48 0.9 -0.34 0.72-0.2 1.8 0.29 2.41l3.43 4.24c0.49 0.61 0.78 1.56 0.63 2.11 -0.14 0.55-1.03 2.26-1.76 2.58l-4.97 2.19c-0.72 0.32-1.32 1.22-1.32 2.01l0.05 1.83c0.05 0.79 0.69 1.67 1.43 1.95l5.1 1.96c0.74 0.28 1.46 0.95 1.6 1.48 0.14 0.53 0.22 2.43-0.25 3.06l-3.22 4.39c-0.47 0.64-0.53 1.72-0.14 2.4l0.98 1.6c0.44 0.66 1.43 1.1 2.21 0.98l5.4-0.85c0.78-0.12 1.73 0.09 2.11 0.48 0.38 0.38 1.38 1.98 1.29 2.77l-0.59 5.4c-0.08 0.78 0.4 1.77 1.06 2.18 0 0 0.13 0.08 0.83 0.46 0.7 0.39 0.84 0.45 0.84 0.45 0.71 0.34 1.8 0.21 2.41-0.29l4.22-3.42c0.62-0.5 1.55-0.79 2.07-0.64 0.53 0.14 2.18 1.03 2.5 1.75l2.2 5c0.32 0.72 1.23 1.32 2.01 1.33l1.87-0.04c0.79-0.05 1.66-0.68 1.95-1.42l1.95-5.08c0.28-0.74 0.95-1.45 1.48-1.59 0.53-0.14 2.43-0.2 3.07 0.27l4.41 3.23c0.64 0.47 1.72 0.53 2.41 0.15l1.57-0.95c0.66-0.43 1.1-1.42 0.98-2.2l-0.85-5.36c-0.12-0.78 0.1-1.74 0.51-2.13 0.4-0.39 2.05-1.43 2.83-1.35l5.42 0.59c0.78 0.09 1.77-0.39 2.19-1.06 0 0 0.11-0.17 0.5-0.89 0.36-0.65 0.37-0.68 0.37-0.68 0.34-0.71 0.21-1.79-0.28-2.41L-86.88-234.76zM-97.77-235.22c-4.79 8.77-15.78 12.01-24.56 7.21 -8.78-4.79-12.01-15.79-7.22-24.56 4.79-8.77 15.79-12 24.56-7.21C-96.21-254.99-92.98-244-97.77-235.22z"/><path fill="#FFFFFF" stroke="#000000" stroke-miterlimit="10" d="M-86.88-234.76c-0.49-0.61-0.77-1.58-0.61-2.14 0.15-0.56 1.06-2.32 1.79-2.64l4.99-2.2c0.73-0.32 1.32-1.22 1.33-2.01l-0.04-1.73c-0.04-0.79-0.68-1.66-1.42-1.95l-5.07-1.95c-0.73-0.28-1.45-0.99-1.6-1.56 -0.15-0.57-0.25-2.58 0.21-3.22l3.22-4.39c0.47-0.64 0.53-1.72 0.14-2.41l-0.88-1.45c-0.43-0.66-1.42-1.1-2.2-0.97l-5.36 0.85c-0.78 0.12-1.76-0.13-2.18-0.56 -0.42-0.43-1.54-2.14-1.46-2.92l0.59-5.39c0.09-0.78-0.39-1.76-1.06-2.18 0 0-0.07-0.04-0.74-0.41 -0.67-0.36-0.74-0.4-0.74-0.4 -0.71-0.34-1.79-0.21-2.41 0.29l-4.21 3.41c-0.61 0.5-1.59 0.77-2.18 0.61 -0.59-0.16-2.4-1.07-2.72-1.79l-2.19-4.96c-0.32-0.72-1.23-1.32-2.01-1.32l-1.7 0.04c-0.79 0.05-1.66 0.69-1.94 1.42l-1.95 5.09c-0.28 0.74-0.99 1.46-1.56 1.61 -0.57 0.15-2.58 0.27-3.22-0.2l-4.38-3.2c-0.64-0.47-1.72-0.53-2.4-0.14l-1.47 0.9c-0.66 0.44-1.1 1.43-0.97 2.21l0.85 5.39c0.12 0.78-0.11 1.75-0.52 2.16s-2.08 1.49-2.86 1.4l-5.37-0.59c-0.79-0.09-1.76 0.39-2.18 1.07 0 0-0.02 0.03-0.37 0.68 -0.39 0.73-0.48 0.9-0.48 0.9 -0.34 0.72-0.2 1.8 0.29 2.41l3.43 4.24c0.49 0.61 0.78 1.56 0.63 2.11 -0.14 0.55-1.03 2.26-1.76 2.58l-4.97 2.19c-0.72 0.32-1.32 1.22-1.32 2.01l0.05 1.83c0.05 0.79 0.69 1.67 1.43 1.95l5.1 1.96c0.74 0.28 1.46 0.95 1.6 1.48 0.14 0.53 0.22 2.43-0.25 3.06l-3.22 4.39c-0.47 0.64-0.53 1.72-0.14 2.4l0.98 1.6c0.44 0.66 1.43 1.1 2.21 0.98l5.4-0.85c0.78-0.12 1.73 0.09 2.11 0.48 0.38 0.38 1.38 1.98 1.29 2.77l-0.59 5.4c-0.08 0.78 0.4 1.77 1.06 2.18 0 0 0.13 0.08 0.83 0.46 0.7 0.39 0.84 0.45 0.84 0.45 0.71 0.34 1.8 0.21 2.41-0.29l4.22-3.42c0.62-0.5 1.55-0.79 2.07-0.64 0.53 0.14 2.18 1.03 2.5 1.75l2.2 5c0.32 0.72 1.23 1.32 2.01 1.33l1.87-0.04c0.79-0.05 1.66-0.68 1.95-1.42l1.95-5.08c0.28-0.74 0.95-1.45 1.48-1.59 0.53-0.14 2.43-0.2 3.07 0.27l4.41 3.23c0.64 0.47 1.72 0.53 2.41 0.15l1.57-0.95c0.66-0.43 1.1-1.42 0.98-2.2l-0.85-5.36c-0.12-0.78 0.1-1.74 0.51-2.13 0.4-0.39 2.05-1.43 2.83-1.35l5.42 0.59c0.78 0.09 1.77-0.39 2.19-1.06 0 0 0.11-0.17 0.5-0.89 0.36-0.65 0.37-0.68 0.37-0.68 0.34-0.71 0.21-1.79-0.28-2.41L-86.88-234.76zM-97.77-235.22c-4.79 8.77-15.78 12.01-24.56 7.21 -8.78-4.79-12.01-15.79-7.22-24.56 4.79-8.77 15.79-12 24.56-7.21C-96.21-254.99-92.98-244-97.77-235.22z"/><path fill="#FFFFFF" stroke="#000000" stroke-miterlimit="10" d="M-86.88-234.76c-0.49-0.61-0.77-1.58-0.61-2.14 0.15-0.56 1.06-2.32 1.79-2.64l4.99-2.2c0.73-0.32 1.32-1.22 1.33-2.01l-0.04-1.73c-0.04-0.79-0.68-1.66-1.42-1.95l-5.07-1.95c-0.73-0.28-1.45-0.99-1.6-1.56 -0.15-0.57-0.25-2.58 0.21-3.22l3.22-4.39c0.47-0.64 0.53-1.72 0.14-2.41l-0.88-1.45c-0.43-0.66-1.42-1.1-2.2-0.97l-5.36 0.85c-0.78 0.12-1.76-0.13-2.18-0.56 -0.42-0.43-1.54-2.14-1.46-2.92l0.59-5.39c0.09-0.78-0.39-1.76-1.06-2.18 0 0-0.07-0.04-0.74-0.41 -0.67-0.36-0.74-0.4-0.74-0.4 -0.71-0.34-1.79-0.21-2.41 0.29l-4.21 3.41c-0.61 0.5-1.59 0.77-2.18 0.61 -0.59-0.16-2.4-1.07-2.72-1.79l-2.19-4.96c-0.32-0.72-1.23-1.32-2.01-1.32l-1.7 0.04c-0.79 0.05-1.66 0.69-1.94 1.42l-1.95 5.09c-0.28 0.74-0.99 1.46-1.56 1.61 -0.57 0.15-2.58 0.27-3.22-0.2l-4.38-3.2c-0.64-0.47-1.72-0.53-2.4-0.14l-1.47 0.9c-0.66 0.44-1.1 1.43-0.97 2.21l0.85 5.39c0.12 0.78-0.11 1.75-0.52 2.16s-2.08 1.49-2.86 1.4l-5.37-0.59c-0.79-0.09-1.76 0.39-2.18 1.07 0 0-0.02 0.03-0.37 0.68 -0.39 0.73-0.48 0.9-0.48 0.9 -0.34 0.72-0.2 1.8 0.29 2.41l3.43 4.24c0.49 0.61 0.78 1.56 0.63 2.11 -0.14 0.55-1.03 2.26-1.76 2.58l-4.97 2.19c-0.72 0.32-1.32 1.22-1.32 2.01l0.05 1.83c0.05 0.79 0.69 1.67 1.43 1.95l5.1 1.96c0.74 0.28 1.46 0.95 1.6 1.48 0.14 0.53 0.22 2.43-0.25 3.06l-3.22 4.39c-0.47 0.64-0.53 1.72-0.14 2.4l0.98 1.6c0.44 0.66 1.43 1.1 2.21 0.98l5.4-0.85c0.78-0.12 1.73 0.09 2.11 0.48 0.38 0.38 1.38 1.98 1.29 2.77l-0.59 5.4c-0.08 0.78 0.4 1.77 1.06 2.18 0 0 0.13 0.08 0.83 0.46 0.7 0.39 0.84 0.45 0.84 0.45 0.71 0.34 1.8 0.21 2.41-0.29l4.22-3.42c0.62-0.5 1.55-0.79 2.07-0.64 0.53 0.14 2.18 1.03 2.5 1.75l2.2 5c0.32 0.72 1.23 1.32 2.01 1.33l1.87-0.04c0.79-0.05 1.66-0.68 1.95-1.42l1.95-5.08c0.28-0.74 0.95-1.45 1.48-1.59 0.53-0.14 2.43-0.2 3.07 0.27l4.41 3.23c0.64 0.47 1.72 0.53 2.41 0.15l1.57-0.95c0.66-0.43 1.1-1.42 0.98-2.2l-0.85-5.36c-0.12-0.78 0.1-1.74 0.51-2.13 0.4-0.39 2.05-1.43 2.83-1.35l5.42 0.59c0.78 0.09 1.77-0.39 2.19-1.06 0 0 0.11-0.17 0.5-0.89 0.36-0.65 0.37-0.68 0.37-0.68 0.34-0.71 0.21-1.79-0.28-2.41L-86.88-234.76zM-97.77-235.22c-4.79 8.77-15.78 12.01-24.56 7.21 -8.78-4.79-12.01-15.79-7.22-24.56 4.79-8.77 15.79-12 24.56-7.21C-96.21-254.99-92.98-244-97.77-235.22z"/><path fill="#FFFFFF" stroke="#000000" stroke-miterlimit="10" d="M-86.88-234.76c-0.49-0.61-0.77-1.58-0.61-2.14 0.15-0.56 1.06-2.32 1.79-2.64l4.99-2.2c0.73-0.32 1.32-1.22 1.33-2.01l-0.04-1.73c-0.04-0.79-0.68-1.66-1.42-1.95l-5.07-1.95c-0.73-0.28-1.45-0.99-1.6-1.56 -0.15-0.57-0.25-2.58 0.21-3.22l3.22-4.39c0.47-0.64 0.53-1.72 0.14-2.41l-0.88-1.45c-0.43-0.66-1.42-1.1-2.2-0.97l-5.36 0.85c-0.78 0.12-1.76-0.13-2.18-0.56 -0.42-0.43-1.54-2.14-1.46-2.92l0.59-5.39c0.09-0.78-0.39-1.76-1.06-2.18 0 0-0.07-0.04-0.74-0.41 -0.67-0.36-0.74-0.4-0.74-0.4 -0.71-0.34-1.79-0.21-2.41 0.29l-4.21 3.41c-0.61 0.5-1.59 0.77-2.18 0.61 -0.59-0.16-2.4-1.07-2.72-1.79l-2.19-4.96c-0.32-0.72-1.23-1.32-2.01-1.32l-1.7 0.04c-0.79 0.05-1.66 0.69-1.94 1.42l-1.95 5.09c-0.28 0.74-0.99 1.46-1.56 1.61 -0.57 0.15-2.58 0.27-3.22-0.2l-4.38-3.2c-0.64-0.47-1.72-0.53-2.4-0.14l-1.47 0.9c-0.66 0.44-1.1 1.43-0.97 2.21l0.85 5.39c0.12 0.78-0.11 1.75-0.52 2.16s-2.08 1.49-2.86 1.4l-5.37-0.59c-0.79-0.09-1.76 0.39-2.18 1.07 0 0-0.02 0.03-0.37 0.68 -0.39 0.73-0.48 0.9-0.48 0.9 -0.34 0.72-0.2 1.8 0.29 2.41l3.43 4.24c0.49 0.61 0.78 1.56 0.63 2.11 -0.14 0.55-1.03 2.26-1.76 2.58l-4.97 2.19c-0.72 0.32-1.32 1.22-1.32 2.01l0.05 1.83c0.05 0.79 0.69 1.67 1.43 1.95l5.1 1.96c0.74 0.28 1.46 0.95 1.6 1.48 0.14 0.53 0.22 2.43-0.25 3.06l-3.22 4.39c-0.47 0.64-0.53 1.72-0.14 2.4l0.98 1.6c0.44 0.66 1.43 1.1 2.21 0.98l5.4-0.85c0.78-0.12 1.73 0.09 2.11 0.48 0.38 0.38 1.38 1.98 1.29 2.77l-0.59 5.4c-0.08 0.78 0.4 1.77 1.06 2.18 0 0 0.13 0.08 0.83 0.46 0.7 0.39 0.84 0.45 0.84 0.45 0.71 0.34 1.8 0.21 2.41-0.29l4.22-3.42c0.62-0.5 1.55-0.79 2.07-0.64 0.53 0.14 2.18 1.03 2.5 1.75l2.2 5c0.32 0.72 1.23 1.32 2.01 1.33l1.87-0.04c0.79-0.05 1.66-0.68 1.95-1.42l1.95-5.08c0.28-0.74 0.95-1.45 1.48-1.59 0.53-0.14 2.43-0.2 3.07 0.27l4.41 3.23c0.64 0.47 1.72 0.53 2.41 0.15l1.57-0.95c0.66-0.43 1.1-1.42 0.98-2.2l-0.85-5.36c-0.12-0.78 0.1-1.74 0.51-2.13 0.4-0.39 2.05-1.43 2.83-1.35l5.42 0.59c0.78 0.09 1.77-0.39 2.19-1.06 0 0 0.11-0.17 0.5-0.89 0.36-0.65 0.37-0.68 0.37-0.68 0.34-0.71 0.21-1.79-0.28-2.41L-86.88-234.76zM-97.77-235.22c-4.79 8.77-15.78 12.01-24.56 7.21 -8.78-4.79-12.01-15.79-7.22-24.56 4.79-8.77 15.79-12 24.56-7.21C-96.21-254.99-92.98-244-97.77-235.22z"/><path fill="#FFFFFF" stroke="#000000" stroke-miterlimit="10" d="M-107.17-255.83c-6.67-3.64-15.03-1.19-18.67 5.48 -3.64 6.67-1.19 15.03 5.48 18.67 6.67 3.64 15.04 1.19 18.67-5.48C-98.04-243.83-100.5-252.19-107.17-255.83zM-105.31-239.14c-2.55 4.67-8.39 6.38-13.06 3.84 -4.67-2.55-6.38-8.39-3.84-13.06 2.55-4.67 8.4-6.38 13.06-3.84C-104.48-249.65-102.77-243.8-105.31-239.14z"/><path fill="#FFFFFF" stroke="#000000" stroke-miterlimit="10" d="M-107.17-255.83c-6.67-3.64-15.03-1.19-18.67 5.48 -3.64 6.67-1.19 15.03 5.48 18.67 6.67 3.64 15.04 1.19 18.67-5.48C-98.04-243.83-100.5-252.19-107.17-255.83zM-105.31-239.14c-2.55 4.67-8.39 6.38-13.06 3.84 -4.67-2.55-6.38-8.39-3.84-13.06 2.55-4.67 8.4-6.38 13.06-3.84C-104.48-249.65-102.77-243.8-105.31-239.14z"/></svg>