<svg xmlns="http://www.w3.org/2000/svg" version="1.1" x="0px" y="0px" width="64px" height="64px" viewBox="0 0 64 64" enable-background="new 0 0 64 64" xml:space="preserve"><path fill="#FFFFFF" d="M59.611 2.917h-3.617l-1.432 1.431 -1.432-1.431h-3.43L48.27 4.348l-1.43-1.431h-3.43l-1.432 1.431 -1.432-1.431h-3.43l-1.432 1.431 -1.432-1.431h-3.43l-1.431 1.431 -1.431-1.431h-3.988V28.12l-5.762 5.688 5.762 4.034v23.242h3.842l1.577-1.577 1.577 1.577h3.137l1.578-1.577 1.576 1.577H40.4l1.576-1.577 1.576 1.577h3.139l1.576-1.577 1.578 1.577h3.137l1.578-1.577 1.576 1.577h3.473V2.917H59.611zM58.111 59.583H56.76l-2.197-2.198 -2.199 2.198h-1.896l-2.198-2.199 -2.196 2.199h-1.896l-2.196-2.199 -2.198 2.199h-1.896l-2.199-2.198 -2.197 2.198h-1.896l-2.198-2.198 -2.198 2.198h-1.721v-20.69l0.782 0.547 3.675-3.629 -4.457-6.544V4.417h1.867l2.052 2.053 2.052-2.053h2.188l2.053 2.052 2.052-2.052h2.188l2.053 2.052 2.052-2.052h2.188l2.051 2.052 2.054-2.052h2.188l2.051 2.052 2.054-2.052h1.497v55.166H58.111z"/><path fill="#FFFFFF" d="M39.074 30.567c-0.24-0.413-0.428-1.226-0.563-2.437h-3.894c-0.029 2.663 0.778 4.548 2.423 5.653 0.934 0.615 2.346 1.029 4.24 1.24v2.869h1.398v-2.898c1.49-0.115 2.779-0.51 3.865-1.184 1.779-1.096 2.668-2.854 2.668-5.277 0-1.836-0.646-3.259-1.938-4.269 -0.785-0.606-2.316-1.303-4.596-2.091v-5.495c0.949 0.067 1.606 0.442 1.967 1.125 0.209 0.395 0.351 1.02 0.428 1.875h3.793c-0.059-2.307-0.895-3.976-2.512-5.004 -0.89-0.644-2.115-1.029-3.676-1.154v-1.947h-1.4v1.918c-0.98 0.077-1.725 0.197-2.234 0.361 -0.836 0.26-1.596 0.731-2.279 1.413 -0.529 0.529-0.939 1.159-1.232 1.889 -0.293 0.731-0.44 1.543-0.44 2.437 0 1.356 0.378 2.514 1.132 3.476 0.756 0.961 2.051 1.711 3.887 2.25l1.168 0.346v6.158C40.184 31.629 39.449 31.211 39.074 30.567zM42.68 26.139c0.797 0.298 1.364 0.586 1.696 0.865 0.56 0.481 0.841 1.135 0.841 1.961 0 1.086-0.3 1.851-0.898 2.293 -0.342 0.25-0.889 0.423-1.639 0.519V26.139zM39.723 21.049c-0.605-0.471-0.908-1.11-0.908-1.918 0-0.74 0.201-1.324 0.605-1.752 0.404-0.428 1.023-0.651 1.859-0.671v5.062C40.578 21.548 40.059 21.308 39.723 21.049z"/><rect x="31.25" y="47.773" fill="#FFFFFF" width="21.167" height="2"/><polygon fill="#FFFFFF" points="1.885,14.752 17.373,33.048 23.657,26.844 5.56,11.123  "/><path fill="#FFFFFF" d="M35.954 45.92c0 0-2.11-2.789-1.772-5.672l-4.369-3.409 -2.522 2.536 2.965 3.982C30.256 43.357 33.941 43.553 35.954 45.92zM32.844 41.652c-0.004 0.017-0.005 0.031-0.01 0.048 -0.021 0.065-0.055 0.12-0.092 0.177 -0.021 0.033-0.04 0.066-0.066 0.096 -0.029 0.033-0.064 0.059-0.101 0.086 -0.048 0.039-0.093 0.073-0.149 0.1 -0.028 0.013-0.058 0.019-0.087 0.027 -0.05 0.018-0.096 0.043-0.151 0.049 -0.024 0.004-0.045-0.006-0.069-0.006 -0.007 0-0.014 0.004-0.021 0.004 -0.017 0-0.032-0.008-0.049-0.01 -0.081-0.006-0.158-0.019-0.232-0.048 -0.024-0.01-0.044-0.022-0.067-0.034 -0.063-0.033-0.121-0.07-0.173-0.119 -0.029-0.026-0.05-0.057-0.075-0.088 -0.033-0.043-0.065-0.084-0.089-0.134 -0.028-0.056-0.043-0.114-0.057-0.178 -0.005-0.022-0.019-0.042-0.021-0.065 -0.001-0.011 0.003-0.021 0.003-0.031 -0.003-0.026-0.016-0.051-0.015-0.078 0-0.065 0.023-0.122 0.038-0.182 0.002-0.007 0.002-0.014 0.004-0.02 0.093-0.331 0.384-0.577 0.744-0.575 0.431 0.003 0.78 0.354 0.776 0.786C32.885 41.525 32.861 41.588 32.844 41.652z"/><path fill="#FFFFFF" d="M1.191 14.12l3.39-3.347C1.088 10.741 1.191 14.12 1.191 14.12z"/><path fill="#FFFFFF" d="M52.948 42.693c-1.419 0.828-2.827 1.64-4.414 2.054 -0.083-0.521-0.166-1.042-0.271-1.56 -0.031-0.31-0.3-0.588-0.634-0.482 -1.868 0.59-3.42 1.799-5.249 2.454 -0.148-0.681-0.297-1.362-0.447-2.043 -0.074-0.334-0.461-0.435-0.734-0.3 -1.631 0.806-3.278 1.57-4.938 2.313 -0.589 0.264-0.08 1.125 0.504 0.863 1.455-0.651 2.899-1.325 4.332-2.021 0.145 0.657 0.287 1.315 0.434 1.973 0.058 0.264 0.363 0.422 0.615 0.349 1.875-0.542 3.418-1.735 5.221-2.433 0.091 0.548 0.201 1.086 0.289 1.646 0.044 0.284 0.373 0.396 0.615 0.349 1.902-0.367 3.525-1.332 5.182-2.299C54.009 43.232 53.506 42.367 52.948 42.693z"/></svg>