<svg xmlns="http://www.w3.org/2000/svg" version="1.1" x="0px" y="0px" width="21.979px" height="23.305px" viewBox="0 0 21.979 23.305" enable-background="new 0 0 21.979 23.305" xml:space="preserve"><path fill="#FFFFFF" d="M17.482 0.116H2.872v3.164H0.499v8.396h2.373v11.545H21.48V3.855L17.482 0.116zM20.129 21.867c-1.198 0-14.71 0-15.906 0 0-0.613 0-5.4 0-10.19h11.34V3.281H4.223c0-0.952 0-1.611 0-1.813 1.194 0 12.238 0 12.729 0 0.322 0.306 2.82 2.641 3.18 2.974C20.129 4.99 20.129 20.637 20.129 21.867z"/><text transform="matrix(1 0 0 1 1.6145 8.9084)" font-family="'Kalinga'" font-size="4.2861">DOCX</text></svg>